{
  "accessors": [
    {
      "bufferView": 2,
      "componentType": 5126,
      "count": 1084,
      "max": [
        1.7035789489746094,
        1.2095450162887573,
        6.457833766937256
      ],
      "min": [
        -1.7035789489746094,
        -0.7143539786338806,
        2.8850629329681396
      ],
      "type": "VEC3"
    },
    {
      "bufferView": 2,
      "byteOffset": 13008,
      "componentType": 5126,
      "count": 1084,
      "max": [
        1.0,
        0.9995432496070862,
        0.9976853132247925
      ],
      "min": [
        -1.0,
        -0.9998584389686584,
        -0.9996063113212585
      ],
      "type": "VEC3"
    },
    {
      "bufferView": 3,
      "componentType": 5126,
      "count": 1084,
      "max": [
        0.9996889233589172,
        0.9986387491226196,
        1.0,
        1.0
      ],
      "min": [
        -0.9266446232795715,
        -0.9986547827720642,
        -0.965682327747345,
        -1.0
      ],
      "type": "VEC4"
    },
    {
      "bufferView": 1,
      "componentType": 5126,
      "count": 1084,
      "max": [
        0.9554139971733093,
        0.9980080127716064
      ],
      "min": [
        0.0019069999689236283,
        0.0019920000340789557
      ],
      "type": "VEC2"
    },
    {
      "bufferView": 0,
      "componentType": 5125,
      "count": 5142,
      "type": "SCALAR"
    },
    {
      "bufferView": 2,
      "byteOffset": 26016,
      "componentType": 5126,
      "count": 242,
      "max": [
        0.8724290132522583,
        -0.004470000043511391,
        4.20497989654541
      ],
      "min": [
        -0.8724290132522583,
        -0.686864972114563,
        3.455578088760376
      ],
      "type": "VEC3"
    },
    {
      "bufferView": 2,
      "byteOffset": 28920,
      "componentType": 5126,
      "count": 242,
      "max": [
        0.9970815181732178,
        0.10462001711130142,
        0.9365353584289551
      ],
      "min": [
        -0.9970817565917969,
        -0.9996442198753357,
        -0.96112459897995
      ],
      "type": "VEC3"
    },
    {
      "bufferView": 1,
      "byteOffset": 8672,
      "componentType": 5126,
      "count": 242,
      "max": [
        0.9543309807777405,
        0.21136100590229034
      ],
      "min": [
        0.6956660151481628,
        0.1282690018415451
      ],
      "type": "VEC2"
    },
    {
      "bufferView": 0,
      "byteOffset": 20568,
      "componentType": 5125,
      "count": 1344,
      "type": "SCALAR"
    },
    {
      "bufferView": 2,
      "byteOffset": 31824,
      "componentType": 5126,
      "count": 2619,
      "max": [
        1.3943849802017212,
        0.3707909882068634,
        3.0372860431671143
      ],
      "min": [
        -1.375419020652771,
        -0.45996999740600586,
        0.023864999413490295
      ],
      "type": "VEC3"
    },
    {
      "bufferView": 2,
      "byteOffset": 63252,
      "componentType": 5126,
      "count": 2619,
      "max": [
        0.9999435544013977,
        0.9994348287582397,
        0.9077011346817017
      ],
      "min": [
        -0.9999607801437378,
        -0.9999558329582214,
        -0.9996318817138672
      ],
      "type": "VEC3"
    },
    {
      "bufferView": 1,
      "byteOffset": 10608,
      "componentType": 5126,
      "count": 2619,
      "max": [
        1.0,
        1.0
      ],
      "min": [
        0.0,
        0.0
      ],
      "type": "VEC2"
    },
    {
      "bufferView": 0,
      "byteOffset": 25944,
      "componentType": 5125,
      "count": 9012,
      "type": "SCALAR"
    },
    {
      "bufferView": 2,
      "byteOffset": 94680,
      "componentType": 5126,
      "count": 678,
      "max": [
        2.775373935699463,
        0.00911100022494793,
        1.8714519739151
      ],
      "min": [
        1.1321840286254883,
        -0.867455005645752,
        0.1059809997677803
      ],
      "type": "VEC3"
    },
    {
      "bufferView": 2,
      "byteOffset": 102816,
      "componentType": 5126,
      "count": 678,
      "max": [
        0.9791521430015564,
        0.9874510169029236,
        0.9960307478904724
      ],
      "min": [
        -0.9956473708152771,
        -0.9959090948104858,
        -0.9678312540054321
      ],
      "type": "VEC3"
    },
    {
      "bufferView": 3,
      "byteOffset": 17344,
      "componentType": 5126,
      "count": 678,
      "max": [
        0.9433088302612305,
        0.9971051216125488,
        0.992337703704834,
        1.0
      ],
      "min": [
        -0.9877025485038757,
        -0.9996764063835144,
        -0.8880255818367004,
        1.0
      ],
      "type": "VEC4"
    },
    {
      "bufferView": 1,
      "byteOffset": 31560,
      "componentType": 5126,
      "count": 678,
      "max": [
        0.9182590246200562,
        1.0
      ],
      "min": [
        0.0,
        0.0
      ],
      "type": "VEC2"
    },
    {
      "bufferView": 0,
      "byteOffset": 61992,
      "componentType": 5125,
      "count": 3456,
      "type": "SCALAR"
    },
    {
      "bufferView": 2,
      "byteOffset": 110952,
      "componentType": 5126,
      "count": 8846,
      "max": [
        1.0943260192871094,
        0.6949229836463928,
        3.1097800731658936
      ],
      "min": [
        -1.8930939435958862,
        -0.7377840280532837,
        0.44453099370002747
      ],
      "type": "VEC3"
    },
    {
      "bufferView": 2,
      "byteOffset": 217104,
      "componentType": 5126,
      "count": 8846,
      "max": [
        0.9996191263198853,
        0.9999943375587463,
        0.9617958664894104
      ],
      "min": [
        -0.9978730082511902,
        -0.9999979734420776,
        -0.9977265000343323
      ],
      "type": "VEC3"
    },
    {
      "bufferView": 1,
      "byteOffset": 36984,
      "componentType": 5126,
      "count": 8846,
      "max": [
        1.0,
        1.0
      ],
      "min": [
        0.0,
        0.0
      ],
      "type": "VEC2"
    },
    {
      "bufferView": 0,
      "byteOffset": 75816,
      "componentType": 5125,
      "count": 51984,
      "type": "SCALAR"
    }
  ],
  "asset": {
    "extras": {
      "author": "EduVelazquez (https://sketchfab.com/EduVelazquez)",
      "license": "CC-BY-4.0 (http://creativecommons.org/licenses/by/4.0/)",
      "source": "https://sketchfab.com/3d-models/hollow-knight-86c4d4bfc46645169211130e3dd2c810",
      "title": "Hollow knight"
    },
    "generator": "Sketchfab-12.66.0",
    "version": "2.0"
  },
  "bufferViews": [
    {
      "buffer": 0,
      "byteLength": 283752,
      "name": "floatBufferViews",
      "target": 34963
    },
    {
      "buffer": 0,
      "byteLength": 107752,
      "byteOffset": 283752,
      "byteStride": 8,
      "name": "floatBufferViews",
      "target": 34962
    },
    {
      "buffer": 0,
      "byteLength": 323256,
      "byteOffset": 391504,
      "byteStride": 12,
      "name": "floatBufferViews",
      "target": 34962
    },
    {
      "buffer": 0,
      "byteLength": 28192,
      "byteOffset": 714760,
      "byteStride": 16,
      "name": "floatBufferViews",
      "target": 34962
    }
  ],
  "buffers": [
    {
      "byteLength": 742952,
      "uri": "scene.bin"
    }
  ],
  "images": [
    {
      "uri": "textures/Cabeza_lowinitialShadingGroup_baseColor.jpeg"
    },
    {
      "uri": "textures/Cabeza_lowinitialShadingGroup_metallicRoughness.png"
    },
    {
      "uri": "textures/Cabeza_lowinitialShadingGroup_normal.png"
    },
    {
      "uri": "textures/lambert7SG_baseColor.jpeg"
    },
    {
      "uri": "textures/lambert7SG_metallicRoughness.png"
    },
    {
      "uri": "textures/lambert7SG_normal.png"
    }
  ],
  "materials": [
    {
      "doubleSided": true,
      "name": "Cabeza_lowinitialShadingGroup",
      "normalTexture": {
        "index": 2
      },
      "pbrMetallicRoughness": {
        "baseColorTexture": {
          "index": 0
        },
        "metallicFactor": 0.0,
        "metallicRoughnessTexture": {
          "index": 1
        }
      }
    },
    {
      "doubleSided": true,
      "name": "Cabeza_lowlambert2SG",
      "pbrMetallicRoughness": {
        "baseColorFactor": [
          0.0,
          0.0,
          0.0,
          1.0
        ],
        "metallicFactor": 0.0
      }
    },
    {
      "doubleSided": true,
      "name": "lambert4SG",
      "pbrMetallicRoughness": {
        "baseColorFactor": [
          0.0,
          0.0,
          0.0,
          1.0
        ],
        "metallicFactor": 0.0
      }
    },
    {
      "doubleSided": true,
      "name": "lambert5SG",
      "pbrMetallicRoughness": {
        "baseColorFactor": [
          0.013472041615103476,
          0.008438778434956343,
          0.02638308043037943,
          1.0
        ],
        "metallicFactor": 0.0
      }
    },
    {
      "doubleSided": true,
      "name": "lambert7SG",
      "normalTexture": {
        "index": 5
      },
      "pbrMetallicRoughness": {
        "baseColorTexture": {
          "index": 3
        },
        "metallicFactor": 0.0,
        "metallicRoughnessTexture": {
          "index": 4
        }
      }
    }
  ],
  "meshes": [
    {
      "name": "Object_0",
      "primitives": [
        {
          "attributes": {
            "NORMAL": 1,
            "POSITION": 0,
            "TANGENT": 2,
            "TEXCOORD_0": 3
          },
          "indices": 4,
          "material": 0,
          "mode": 4
        }
      ]
    },
    {
      "name": "Object_1",
      "primitives": [
        {
          "attributes": {
            "NORMAL": 6,
            "POSITION": 5,
            "TEXCOORD_0": 7
          },
          "indices": 8,
          "material": 1,
          "mode": 4
        }
      ]
    },
    {
      "name": "Object_2",
      "primitives": [
        {
          "attributes": {
            "NORMAL": 10,
            "POSITION": 9,
            "TEXCOORD_0": 11
          },
          "indices": 12,
          "material": 2,
          "mode": 4
        }
      ]
    },
    {
      "name": "Object_3",
      "primitives": [
        {
          "attributes": {
            "NORMAL": 14,
            "POSITION": 13,
            "TANGENT": 15,
            "TEXCOORD_0": 16
          },
          "indices": 17,
          "material": 4,
          "mode": 4
        }
      ]
    },
    {
      "name": "Object_4",
      "primitives": [
        {
          "attributes": {
            "NORMAL": 19,
            "POSITION": 18,
            "TEXCOORD_0": 20
          },
          "indices": 21,
          "material": 3,
          "mode": 4
        }
      ]
    }
  ],
  "nodes": [
    {
      "children": [
        1
      ],
      "matrix": [
        1.0,
        0.0,
        0.0,
        0.0,
        0.0,
        2.220446049250313e-16,
        -1.0,
        0.0,
        0.0,
        1.0,
        2.220446049250313e-16,
        0.0,
        0.0,
        0.0,
        0.0,
        1.0
      ],
      "name": "Sketchfab_model"
    },
    {
      "children": [
        2,
        3,
        4,
        5,
        6
      ],
      "name": "Hollowkght_End.obj.cleaner.materialmerger.gles"
    },
    {
      "mesh": 0,
      "name": "Object_2"
    },
    {
      "mesh": 1,
      "name": "Object_3"
    },
    {
      "mesh": 2,
      "name": "Object_4"
    },
    {
      "mesh": 3,
      "name": "Object_5"
    },
    {
      "mesh": 4,
      "name": "Object_6"
    }
  ],
  "samplers": [
    {
      "magFilter": 9729,
      "minFilter": 9987,
      "wrapS": 10497,
      "wrapT": 10497
    }
  ],
  "scene": 0,
  "scenes": [
    {
      "name": "Sketchfab_Scene",
      "nodes": [
        0
      ]
    }
  ],
  "textures": [
    {
      "sampler": 0,
      "source": 0
    },
    {
      "sampler": 0,
      "source": 1
    },
    {
      "sampler": 0,
      "source": 2
    },
    {
      "sampler": 0,
      "source": 3
    },
    {
      "sampler": 0,
      "source": 4
    },
    {
      "sampler": 0,
      "source": 5
    }
  ]
}
