{
  "accessors": [
    {
      "bufferView": 2,
      "componentType": 5126,
      "count": 5616,
      "max": [
        -6.742912769317627,
        32.18811798095703,
        21.293794631958008
      ],
      "min": [
        -23.612316131591797,
        21.689517974853516,
        -8.625249862670898
      ],
      "type": "VEC3"
    },
    {
      "bufferView": 2,
      "byteOffset": 67392,
      "componentType": 5126,
      "count": 5616,
      "max": [
        0.9998734593391418,
        0.9999784231185913,
        0.4116368889808655
      ],
      "min": [
        -0.9999950528144836,
        -0.999987006187439,
        -0.0065943580120801926
      ],
      "type": "VEC3"
    },
    {
      "bufferView": 1,
      "componentType": 5126,
      "count": 5616,
      "max": [
        0.9526600241661072,
        0.9931139349937439
      ],
      "min": [
        0.0074109421111643314,
        0.7211920619010925
      ],
      "type": "VEC2"
    },
    {
      "bufferView": 0,
      "componentType": 5125,
      "count": 16848,
      "type": "SCALAR"
    },
    {
      "bufferView": 2,
      "byteOffset": 134784,
      "componentType": 5126,
      "count": 8632,
      "max": [
        4.314168453216553,
        4.4999823570251465,
        1.2175862789154053
      ],
      "min": [
        -4.629275321960449,
        -3.755422592163086,
        -1.661089301109314
      ],
      "type": "VEC3"
    },
    {
      "bufferView": 2,
      "byteOffset": 238368,
      "componentType": 5126,
      "count": 8632,
      "max": [
        0.9998824596405029,
        0.9999872446060181,
        0.9999733567237854
      ],
      "min": [
        -0.9999216794967651,
        -0.9998770952224731,
        -0.5779496431350708
      ],
      "type": "VEC3"
    },
    {
      "bufferView": 1,
      "byteOffset": 44928,
      "componentType": 5126,
      "count": 8632,
      "max": [
        0.9926356077194214,
        0.7942164540290833
      ],
      "min": [
        0.0071274032816290855,
        0.00442702230066061
      ],
      "type": "VEC2"
    },
    {
      "bufferView": 0,
      "byteOffset": 67392,
      "componentType": 5125,
      "count": 39528,
      "type": "SCALAR"
    },
    {
      "bufferView": 2,
      "byteOffset": 341952,
      "componentType": 5126,
      "count": 847,
      "max": [
        4.597685813903809,
        32.048439025878906,
        21.557828903198242
      ],
      "min": [
        -23.849685668945313,
        -4.597685813903809,
        -8.986119270324707
      ],
      "type": "VEC3"
    },
    {
      "bufferView": 2,
      "byteOffset": 352116,
      "componentType": 5126,
      "count": 847,
      "max": [
        1.0,
        1.0,
        1.0
      ],
      "min": [
        -1.0,
        -1.0,
        -1.0
      ],
      "type": "VEC3"
    },
    {
      "bufferView": 1,
      "byteOffset": 113984,
      "componentType": 5126,
      "count": 847,
      "max": [
        0.9947589039802551,
        0.9867007732391357
      ],
      "min": [
        0.008559981361031532,
        0.009370574727654457
      ],
      "type": "VEC2"
    },
    {
      "bufferView": 0,
      "byteOffset": 225504,
      "componentType": 5125,
      "count": 3456,
      "type": "SCALAR"
    },
    {
      "bufferView": 2,
      "byteOffset": 362280,
      "componentType": 5126,
      "count": 1896,
      "max": [
        5.436905860900879,
        4.811059951782227,
        5.368500709533691
      ],
      "min": [
        -4.699885845184326,
        -4.726691246032715,
        -0.6959580183029175
      ],
      "type": "VEC3"
    },
    {
      "bufferView": 2,
      "byteOffset": 385032,
      "componentType": 5126,
      "count": 1896,
      "max": [
        0.9984452128410339,
        0.99775630235672,
        1.0
      ],
      "min": [
        -0.9986868500709534,
        -0.9977571368217468,
        -1.0
      ],
      "type": "VEC3"
    },
    {
      "bufferView": 1,
      "byteOffset": 120760,
      "componentType": 5126,
      "count": 1896,
      "max": [
        0.9895085692405701,
        0.990557074546814
      ],
      "min": [
        0.008710235357284546,
        0.005737088620662689
      ],
      "type": "VEC2"
    },
    {
      "bufferView": 0,
      "byteOffset": 239328,
      "componentType": 5125,
      "count": 9696,
      "type": "SCALAR"
    },
    {
      "bufferView": 2,
      "byteOffset": 407784,
      "componentType": 5126,
      "count": 17438,
      "max": [
        0.7858960032463074,
        0.9323842525482178,
        4.414610385894775
      ],
      "min": [
        -0.8420336842536926,
        -0.8550295233726501,
        -0.0023508071899414063
      ],
      "type": "VEC3"
    },
    {
      "bufferView": 2,
      "byteOffset": 617040,
      "componentType": 5126,
      "count": 17438,
      "max": [
        0.9999098777770996,
        0.9999992847442627,
        0.999941349029541
      ],
      "min": [
        -0.999900758266449,
        -0.9999741315841675,
        -0.9997794032096863
      ],
      "type": "VEC3"
    },
    {
      "bufferView": 3,
      "componentType": 5126,
      "count": 17438,
      "max": [
        0.8980392217636108,
        0.8509804010391235,
        0.8549019694328308,
        1.0
      ],
      "min": [
        0.0,
        0.0,
        0.0,
        1.0
      ],
      "type": "VEC4"
    },
    {
      "bufferView": 0,
      "byteOffset": 278112,
      "componentType": 5125,
      "count": 103950,
      "type": "SCALAR"
    }
  ],
  "asset": {
    "extras": {
      "author": "Lillya (https://sketchfab.com/Lillya)",
      "license": "CC-BY-4.0 (http://creativecommons.org/licenses/by/4.0/)",
      "source": "https://sketchfab.com/3d-models/hornet-hollow-knight-c957d110fe7b45fbb40ef5e442951ddb",
      "title": "Hornet - Hollow Knight"
    },
    "generator": "Sketchfab-12.66.0",
    "version": "2.0"
  },
  "bufferViews": [
    {
      "buffer": 0,
      "byteLength": 693912,
      "name": "floatBufferViews",
      "target": 34963
    },
    {
      "buffer": 0,
      "byteLength": 135928,
      "byteOffset": 693912,
      "byteStride": 8,
      "name": "floatBufferViews",
      "target": 34962
    },
    {
      "buffer": 0,
      "byteLength": 826296,
      "byteOffset": 829840,
      "byteStride": 12,
      "name": "floatBufferViews",
      "target": 34962
    },
    {
      "buffer": 0,
      "byteLength": 279008,
      "byteOffset": 1656136,
      "byteStride": 16,
      "name": "floatBufferViews",
      "target": 34962
    }
  ],
  "buffers": [
    {
      "byteLength": 1935144,
      "uri": "scene.bin"
    }
  ],
  "images": [
    {
      "uri": "textures/leaves_material_baseColor.png"
    },
    {
      "uri": "textures/rocks_material_baseColor.png"
    },
    {
      "uri": "textures/nail_material_baseColor.png"
    },
    {
      "uri": "textures/nail_material_emissive.png"
    }
  ],
  "materials": [
    {
      "alphaMode": "MASK",
      "doubleSided": true,
      "name": "leaves_material",
      "pbrMetallicRoughness": {
        "baseColorTexture": {
          "index": 0
        },
        "metallicFactor": 0.0
      }
    },
    {
      "alphaCutoff": 0.35,
      "alphaMode": "MASK",
      "doubleSided": true,
      "name": "grass_material",
      "pbrMetallicRoughness": {
        "baseColorTexture": {
          "index": 0
        },
        "metallicFactor": 0.0
      }
    },
    {
      "doubleSided": true,
      "name": "rocks_material",
      "pbrMetallicRoughness": {
        "baseColorTexture": {
          "index": 1
        },
        "metallicFactor": 0.0
      }
    },
    {
      "emissiveFactor": [
        1.0,
        1.0,
        1.0
      ],
      "emissiveTexture": {
        "index": 3
      },
      "name": "nail_material",
      "pbrMetallicRoughness": {
        "baseColorTexture": {
          "index": 2
        },
        "metallicFactor": 0.0
      }
    },
    {
      "name": "hornet_material",
      "pbrMetallicRoughness": {
        "baseColorFactor": [
          0.8,
          0.8,
          0.8,
          1.0
        ],
        "metallicFactor": 0.0
      }
    }
  ],
  "meshes": [
    {
      "name": "leaves_leaves_material_0",
      "primitives": [
        {
          "attributes": {
            "NORMAL": 1,
            "POSITION": 0,
            "TEXCOORD_0": 2
          },
          "indices": 3,
          "material": 0,
          "mode": 4
        }
      ]
    },
    {
      "name": "grass_grass_material_0",
      "primitives": [
        {
          "attributes": {
            "NORMAL": 5,
            "POSITION": 4,
            "TEXCOORD_0": 6
          },
          "indices": 7,
          "material": 1,
          "mode": 4
        }
      ]
    },
    {
      "name": "ground_rocks_material_0",
      "primitives": [
        {
          "attributes": {
            "NORMAL": 9,
            "POSITION": 8,
            "TEXCOORD_0": 10
          },
          "indices": 11,
          "material": 2,
          "mode": 4
        }
      ]
    },
    {
      "name": "nail_nail_material_0",
      "primitives": [
        {
          "attributes": {
            "NORMAL": 13,
            "POSITION": 12,
            "TEXCOORD_0": 14
          },
          "indices": 15,
          "material": 3,
          "mode": 4
        }
      ]
    },
    {
      "name": "hornet_hornet_material_0",
      "primitives": [
        {
          "attributes": {
            "COLOR_0": 18,
            "NORMAL": 17,
            "POSITION": 16
          },
          "indices": 19,
          "material": 4,
          "mode": 4
        }
      ]
    }
  ],
  "nodes": [
    {
      "children": [
        1
      ],
      "matrix": [
        1.0,
        0.0,
        0.0,
        0.0,
        0.0,
        2.220446049250313e-16,
        -1.0,
        0.0,
        0.0,
        1.0,
        2.220446049250313e-16,
        0.0,
        0.0,
        0.0,
        0.0,
        1.0
      ],
      "name": "Sketchfab_model"
    },
    {
      "children": [
        2
      ],
      "matrix": [
        1.0,
        0.0,
        0.0,
        0.0,
        0.0,
        0.0,
        1.0,
        0.0,
        0.0,
        -1.0,
        0.0,
        0.0,
        0.0,
        0.0,
        0.0,
        1.0
      ],
      "name": "a2537bb155374bf48dc03703a44c50ee.fbx"
    },
    {
      "children": [
        3,
        5,
        7,
        9,
        11
      ],
      "name": "RootNode"
    },
    {
      "children": [
        4
      ],
      "matrix": [
        100.0,
        0.0,
        0.0,
        0.0,
        0.0,
        -1.629206793918314e-05,
        -99.99999999999868,
        0.0,
        0.0,
        99.99999999999868,
        -1.629206793918314e-05,
        0.0,
        0.0,
        0.0,
        0.0,
        1.0
      ],
      "name": "leaves"
    },
    {
      "mesh": 0,
      "name": "leaves_leaves_material_0"
    },
    {
      "children": [
        6
      ],
      "matrix": [
        100.0,
        0.0,
        0.0,
        0.0,
        0.0,
        -1.629206793918314e-05,
        -99.99999999999868,
        0.0,
        0.0,
        99.99999999999868,
        -1.629206793918314e-05,
        0.0,
        0.0,
        0.0,
        0.0,
        1.0
      ],
      "name": "grass"
    },
    {
      "mesh": 1,
      "name": "grass_grass_material_0"
    },
    {
      "children": [
        8
      ],
      "matrix": [
        100.0,
        0.0,
        0.0,
        0.0,
        0.0,
        -1.629206793918314e-05,
        -99.99999999999868,
        0.0,
        0.0,
        99.99999999999868,
        -1.629206793918314e-05,
        0.0,
        0.0,
        0.0,
        0.0,
        1.0
      ],
      "name": "ground"
    },
    {
      "mesh": 2,
      "name": "ground_rocks_material_0"
    },
    {
      "children": [
        10
      ],
      "matrix": [
        100.0,
        0.0,
        0.0,
        0.0,
        0.0,
        -1.629206793918314e-05,
        -99.99999999999868,
        0.0,
        0.0,
        99.99999999999868,
        -1.629206793918314e-05,
        0.0,
        0.0,
        0.0,
        0.0,
        1.0
      ],
      "name": "nail"
    },
    {
      "mesh": 3,
      "name": "nail_nail_material_0"
    },
    {
      "children": [
        12
      ],
      "matrix": [
        100.0,
        0.0,
        0.0,
        0.0,
        0.0,
        -1.629206793918314e-05,
        -99.99999999999868,
        0.0,
        0.0,
        99.99999999999868,
        -1.629206793918314e-05,
        0.0,
        0.0,
        0.0,
        0.0,
        1.0
      ],
      "name": "hornet"
    },
    {
      "mesh": 4,
      "name": "hornet_hornet_material_0"
    }
  ],
  "samplers": [
    {
      "magFilter": 9729,
      "minFilter": 9987,
      "wrapS": 10497,
      "wrapT": 10497
    }
  ],
  "scene": 0,
  "scenes": [
    {
      "name": "Sketchfab_Scene",
      "nodes": [
        0
      ]
    }
  ],
  "textures": [
    {
      "sampler": 0,
      "source": 0
    },
    {
      "sampler": 0,
      "source": 1
    },
    {
      "sampler": 0,
      "source": 2
    },
    {
      "sampler": 0,
      "source": 3
    }
  ]
}
